<?xml version="1.0" encoding="utf-8"?>
<!-- Generator: Adobe Illustrator 23.0.2, SVG Export Plug-In . SVG Version: 6.00 Build 0)  -->
<svg version="1.1" id="Layer_1" xmlns="http://www.w3.org/2000/svg" xmlns:xlink="http://www.w3.org/1999/xlink" x="0px" y="0px"
	 viewBox="0 0 100 125" style="enable-background:new 0 0 100 125;" xml:space="preserve">
<style type="text/css">
	.st0{fill-rule:evenodd;clip-rule:evenodd;}
	.st1{font-family:'Arial-BoldMT';}
	.st2{font-size:1.0839px;}
</style>
<title>tool-7 copy 3</title>
<desc>Created with Sketch.</desc>
<g>
	<path class="st0" d="M66.3,34.8c1.2,0,2.2,1.1,2,2.4c-0.2,1-1.1,1.7-2.1,1.7h-8.6c-1.1,0-2-0.9-2-2v-8.6c0-1,0.7-2,1.7-2.1
		c1.3-0.2,2.4,0.8,2.4,2v3.7L84.7,8.5c0.3-0.3,0.5-0.7,0.6-1.1c0.1-0.6-0.1-1.3-0.5-1.7c-0.8-0.8-2.1-0.9-2.9-0.1L70.8,15.8
		c-4.4-3.3-9.8-5.4-15.5-5.9c-15.1-1.4-28.8,8.2-32.8,22.7c0,0,0,0,0,0L14.4,57c-0.7,2.1-0.5,4.4,0.8,6.2c1.3,1.9,3.3,2.9,5.6,2.9
		h0.7v5.8c0,9,7.3,16.3,16.3,16.3h3.8v4.7c0,1,0.7,2,1.7,2.1c1.3,0.2,2.4-0.8,2.4-2v-6.8c0-0.5-0.2-1.1-0.6-1.5
		c-0.4-0.4-0.9-0.6-1.4-0.6c-0.1,0-0.2,0-0.3,0h-5.5c-6.8,0-12.3-5.5-12.3-12.3V64c0-1.1-0.9-2-2-2h-2.6c-0.7,0-1.4-0.2-1.9-0.7
		c-0.8-0.7-1-1.8-0.7-2.8c0,0,8.1-24.5,8.2-24.6c3.4-12.7,15.4-21,28.5-19.9c4.7,0.4,9.1,2.1,12.9,4.7l-4.1,3.8
		c-6.3-4.2-14.4-4.2-21.5-1.3c-3.7,1.5-4.9,6.3-2.2,9.3l22,24.4c2.9,3.2,8.1,2.3,9.7-1.7c3.9-9.9,1.5-18.1-1.5-23.4
		c-0.5-0.9-1.8-1.2-2.6-0.4l-6,5.5H66.3z M35.4,45.6c-2.5,0-4.4,2-4.4,4.4c0,2.4,2,4.4,4.4,4.4c2.4,0,4.4-2,4.4-4.4
		C39.8,47.6,37.8,45.6,35.4,45.6L35.4,45.6z M74.4,25.4c-0.6-0.8-0.5-2,0.3-2.7l0,0c0.9-0.8,2.4-0.7,3.1,0.3
		c2.9,4.2,4.8,9.1,5.4,14.5c0.4,4.4,0,8.7-1.4,12.8c-0.5,1.4-1,2.9-1.4,4.3c-0.8,2.4-1.6,4.8-2.4,7.3c-3.1,9.9-2.9,20.4,0.4,30.2
		c0.3,0.9,0,1.9-0.7,2.4c-0.4,0.3-0.8,0.4-1.2,0.4c-0.8,0-1.6-0.5-1.9-1.4c-3.7-10.7-3.9-22.1-0.5-32.9c0.8-2.5,1.6-5,2.4-7.4
		c0.5-1.4,1-2.9,1.4-4.3c1.2-3.6,1.6-7.3,1.2-11.2C78.6,33.3,76.9,29,74.4,25.4L74.4,25.4z"/>
</g>
<text transform="matrix(1 0 0 1 23.3143 95)" class="st1 st2">Created by Icon Island</text>
<text transform="matrix(1 0 0 1 23.3143 96.084)" class="st1 st2">from the Noun Project</text>
</svg>
