<?xml version="1.0" encoding="utf-8"?>
<!-- Generator: Adobe Illustrator 23.0.2, SVG Export Plug-In . SVG Version: 6.00 Build 0)  -->
<svg version="1.1" id="Layer_1" xmlns="http://www.w3.org/2000/svg" xmlns:xlink="http://www.w3.org/1999/xlink" x="0px" y="0px"
	 viewBox="0 0 100 125" style="enable-background:new 0 0 100 125;" xml:space="preserve">
<style type="text/css">
	.st0{fill-rule:evenodd;clip-rule:evenodd;}
</style>
<title>icon_by_Poshlyakov12</title>
<desc>Created with Sketch.</desc>
<g>
	<g>
		<g transform="translate(38.000000, 26.000000)">
			<path class="st0" d="M12,16c2.2,0,4-1.8,4-4s-1.8-4-4-4s-4,1.8-4,4S9.8,16,12,16L12,16z M12,20c-2.2,0-4,1.8-4,4s1.8,4,4,4
				s4-1.8,4-4S14.2,20,12,20L12,20z M12,32c-2.2,0-4,1.8-4,4s1.8,4,4,4s4-1.8,4-4S14.2,32,12,32L12,32z"/>
		</g>
	</g>
</g>
</svg>
