<?xml version="1.0" encoding="utf-8"?>
<!-- Generator: Adobe Illustrator 23.0.2, SVG Export Plug-In . SVG Version: 6.00 Build 0)  -->
<svg version="1.1" id="Layer_1" xmlns="http://www.w3.org/2000/svg" xmlns:xlink="http://www.w3.org/1999/xlink" x="0px" y="0px"
	 viewBox="0 0 52 65" style="enable-background:new 0 0 52 65;" xml:space="preserve">
<style type="text/css">
	.st0{fill:none;stroke:#EEC46C;stroke-width:2;stroke-miterlimit:10;}
</style>
<g>
	<g>
		<path class="st0" d="M3.1,28.1C3.7,27.6,4,26.8,4,26s-0.3-1.6-0.9-2.1"/>
		<circle class="st0" cx="11" cy="26" r="3"/>
		<circle class="st0" cx="21" cy="26" r="3"/>
		<circle class="st0" cx="31" cy="26" r="3"/>
		<circle class="st0" cx="41" cy="26" r="3"/>
		<path class="st0" d="M48.9,23.9C48.3,24.4,48,25.2,48,26s0.3,1.6,0.9,2.1"/>
		<path class="st0" d="M4.3,18.4C4.8,18.8,5.4,19,6,19c1.7,0,3-1.3,3-3c0-1.3-0.9-2.5-2.1-2.8"/>
		<circle class="st0" cx="16" cy="16" r="3"/>
		<circle class="st0" cx="26" cy="16" r="3"/>
		<circle class="st0" cx="36" cy="16" r="3"/>
		<path class="st0" d="M47.7,18.4C47.2,18.8,46.6,19,46,19c-1.7,0-3-1.3-3-3c0-1.3,0.9-2.5,2.1-2.8"/>
		<path class="st0" d="M10.6,9c0.1,0,0.3,0,0.4,0c1.5,0,2.8-1.1,3-2.6"/>
		<path class="st0" d="M18.6,4.2C18.2,4.7,18,5.3,18,6c0,1.7,1.3,3,3,3s3-1.3,3-3c0-1.2-0.7-2.2-1.7-2.7"/>
		<path class="st0" d="M29.7,3.3C28.7,3.8,28,4.8,28,6c0,1.7,1.3,3,3,3s3-1.3,3-3c0-0.7-0.2-1.3-0.6-1.8"/>
		<path class="st0" d="M41.4,9c-0.1,0-0.3,0-0.4,0c-1.5,0-2.8-1.1-3-2.6"/>
		<path class="st0" d="M47.7,33.6C47.2,33.2,46.6,33,46,33c-1.7,0-3,1.3-3,3c0,1.3,0.9,2.5,2.1,2.8"/>
		<circle class="st0" cx="36" cy="36" r="3"/>
		<circle class="st0" cx="26" cy="36" r="3"/>
		<circle class="st0" cx="16" cy="36" r="3"/>
		<path class="st0" d="M4.3,33.6C4.8,33.2,5.4,33,6,33c1.7,0,3,1.3,3,3c0,1.3-0.9,2.5-2.1,2.8"/>
		<path class="st0" d="M41.4,43c-0.1,0-0.3,0-0.4,0c-1.5,0-2.8,1.1-3,2.6"/>
		<path class="st0" d="M33.4,47.8c0.4-0.5,0.6-1.1,0.6-1.8c0-1.7-1.3-3-3-3s-3,1.3-3,3c0,1.2,0.7,2.2,1.7,2.7"/>
		<path class="st0" d="M22.3,48.7c1-0.5,1.7-1.5,1.7-2.7c0-1.7-1.3-3-3-3s-3,1.3-3,3c0,0.7,0.2,1.3,0.6,1.8"/>
		<path class="st0" d="M10.6,43c0.1,0,0.3,0,0.4,0c1.5,0,2.8,1.1,3,2.6"/>
	</g>
	<circle class="st0" cx="26" cy="26" r="23"/>
</g>
</svg>
