<?xml version="1.0" encoding="utf-8"?>
<!-- Generator: Adobe Illustrator 23.0.2, SVG Export Plug-In . SVG Version: 6.00 Build 0)  -->
<svg version="1.1"
	 id="Layer_1" xmlns:cc="http://creativecommons.org/ns#" xmlns:dc="http://purl.org/dc/elements/1.1/" xmlns:inkscape="http://www.inkscape.org/namespaces/inkscape" xmlns:rdf="http://www.w3.org/1999/02/22-rdf-syntax-ns#" xmlns:sodipodi="http://sodipodi.sourceforge.net/DTD/sodipodi-0.dtd" xmlns:svg="http://www.w3.org/2000/svg"
	 xmlns="http://www.w3.org/2000/svg" xmlns:xlink="http://www.w3.org/1999/xlink" x="0px" y="0px" viewBox="0 0 64 80"
	 style="enable-background:new 0 0 64 80;" xml:space="preserve">
<style type="text/css">
	.st0{fill:#EEC46C;stroke:#EEC46C;stroke-width:4.8079;stroke-linecap:round;stroke-linejoin:round;}
	.st1{fill:#EEC46C;stroke:#EEC46C;stroke-width:3.9463;stroke-linecap:round;stroke-linejoin:round;}
	.st2{fill:none;stroke:#EEC46C;stroke-width:5.486;stroke-linecap:square;stroke-linejoin:round;stroke-miterlimit:11.2;}
	.st3{font-family:'Arial-BoldMT';}
	.st4{font-size:5px;}
</style>
<g>
	<g transform="matrix(1.0021244,0,0,1.0252447,-0.06813623,-0.01565436)">
		<path class="st0" d="M47.2,27.9l-30.3,0L32,15L47.2,27.9z"/>
		<path class="st1" d="M20,28.5v14.4h6v-8.5h12v8.5h6V28.5C44,28.5,20,28.5,20,28.5z"/>
	</g>
</g>
<g>
	<path class="st2" d="M2.7,32c0,16.2,13.1,29.3,29.3,29.3c0,0,0,0,0,0c16.2,0,29.3-13.1,29.3-29.3c0,0,0,0,0,0
		C61.3,15.8,48.2,2.7,32,2.7C15.8,2.7,2.7,15.8,2.7,32z"/>
</g>
<text transform="matrix(1 0 0 1 0 79)" class="st3 st4">Created by Giovanny</text>
<text transform="matrix(1 0 0 1 0 84)" class="st3 st4">from the Noun Project</text>
</svg>
