<svg xmlns="http://www.w3.org/2000/svg" xmlns:xlink="http://www.w3.org/1999/xlink" viewBox="0 0 100 125" version="1.1" x="0px" y="0px"><title>icon_by_Poshlyakov12</title><desc>Created with Sketch.</desc><g stroke="none" stroke-width="1" fill="none" fill-rule="evenodd"><g fill="#000000"><g transform="translate(38.000000, 26.000000)"><path d="M12,16 C14.2,16 16,14.2 16,12 C16,9.8 14.2,8 12,8 C9.8,8 8,9.8 8,12 C8,14.2 9.8,16 12,16 L12,16 Z M12,20 C9.8,20 8,21.8 8,24 C8,26.2 9.8,28 12,28 C14.2,28 16,26.2 16,24 C16,21.8 14.2,20 12,20 L12,20 Z M12,32 C9.8,32 8,33.8 8,36 C8,38.2 9.8,40 12,40 C14.2,40 16,38.2 16,36 C16,33.8 14.2,32 12,32 L12,32 Z"/></g></g></g><text x="0" y="115" fill="#000000" font-size="5px" font-weight="bold" font-family="'Helvetica Neue', Helvetica, Arial-Unicode, Arial, Sans-serif">Created by  Green</text><text x="0" y="120" fill="#000000" font-size="5px" font-weight="bold" font-family="'Helvetica Neue', Helvetica, Arial-Unicode, Arial, Sans-serif">from the Noun Project</text></svg>