<svg xmlns="http://www.w3.org/2000/svg" viewBox="0 0 100 125" version="1.1" x="0px" y="0px"><title>Download s7.3</title><desc>Created with Sketch.</desc><g stroke="none" stroke-width="1" fill="none" fill-rule="evenodd" transform="matrix(0, 1, -1, 0, 100, -0.000002)"><g><path d="M51.7178475,34.7325339 C50.7492396,33.7515421 49.1791725,33.7554855 48.2059335,34.7465054 L36.6209567,46.5431361 C34.7387258,48.4292911 37.5610742,51.2575234 39.4433051,49.3713685 L47.3035824,41.4879656 C47.6904965,41.0999131 48.0041524,41.2361568 48.0041524,41.7864666 L48.0041524,63.5365625 C48.0041524,64.6438549 48.890108,65.5414928 50.0001555,65.5414928 L50.0001555,65.5414928 C51.1025176,65.5414928 51.9961586,64.6457827 51.9961586,63.5365625 L51.9961586,41.7864666 C51.9961586,41.2335566 52.3109966,41.1010987 52.6967286,41.4879656 L60.5570059,49.3713685 C62.4382388,51.2575234 65.2615852,48.4292911 63.3793543,46.5431361 L51.7178475,34.7325339 Z" fill="#000000" transform="translate(50.000093, 49.770746) rotate(-180.000000) translate(-50.000093, -49.770746) "/><circle stroke="#000000" stroke-width="4" transform="translate(50.000000, 50.000000) rotate(-180.000000) translate(-50.000000, -50.000000) " cx="50" cy="50" r="30"/></g></g><text x="0" y="115" fill="#000000" font-size="5px" font-weight="bold" font-family="'Helvetica Neue', Helvetica, Arial-Unicode, Arial, Sans-serif">Created by Landan Lloyd</text><text x="0" y="120" fill="#000000" font-size="5px" font-weight="bold" font-family="'Helvetica Neue', Helvetica, Arial-Unicode, Arial, Sans-serif">from the Noun Project</text></svg>